Coordinates
version=1
nRows=37
nColumns=38
inDegrees=no

Units are S.I. units (second, meters, Newtons, ...)
If the header above contains a line with 'inDegrees', this indicates whether rotational values are in degrees (yes) or radians (no).

endheader
time	pelvis_tilt	pelvis_list	pelvis_rotation	pelvis_tx	pelvis_ty	pelvis_tz	hip_flexion_r	hip_adduction_r	hip_rotation_r	knee_angle_r	ankle_angle_r	subtalar_angle_r	mtp_angle_r	hip_flexion_l	hip_adduction_l	hip_rotation_l	knee_angle_l	ankle_angle_l	subtalar_angle_l	mtp_angle_l	lumbar_extension	lumbar_bending	lumbar_rotation	arm_flex_r	arm_add_r	arm_rot_r	elbow_flex_r	pro_sup_r	wrist_flex_r	wrist_dev_r	arm_flex_l	arm_add_l	arm_rot_l	elbow_flex_l	pro_sup_l	wrist_flex_l	wrist_dev_l
0	2.962	1.3476	-1.31739	0.759613	-0.556994	0.952757	-0.271447	0.0858465	-0.196164	0.421875	-0.114159	0	0	0.324529	-0.183555	-0.325395	0.857704	-0.30936	0	0	-0.443549	0.124267	0.0472784	-0.212827	-0.526792	0.484575	0.849465	0.799509	0	0	-0.12856	-0.171842	-0.0558696	0.614851	1.5708	0	0
0.01	2.9553	1.35046	-1.30906	0.75917	-0.550031	0.951603	-0.281644	0.0885485	-0.191112	0.410729	-0.114145	0	0	0.327233	-0.176386	-0.335594	0.797875	-0.305392	0	0	-0.443237	0.125644	0.0461257	-0.213213	-0.524022	0.474681	0.84944	0.808364	0	0	-0.124828	-0.17075	-0.0568818	0.614261	1.5708	0	0
0.02	2.95214	1.35408	-1.30383	0.758633	-0.542649	0.950373	-0.29162	0.0898092	-0.18937	0.400034	-0.114677	0	0	0.32706	-0.166424	-0.343405	0.729975	-0.301205	0	0	-0.441402	0.126076	0.0440737	-0.213076	-0.520499	0.466622	0.84753	0.817404	0	0	-0.123285	-0.170457	-0.0570059	0.613748	1.5708	0	0
0.03	3.03821	1.39385	-1.3877	0.758722	-0.535757	0.944816	-0.297407	0.0441065	-0.169635	0.342641	-0.102679	0	0	0.331904	-0.0838342	-0.226699	0.57912	-0.280711	0	0	-0.4035	0.0983017	0.0350091	-0.216339	-0.505087	0.452627	0.837409	0.832728	0	0	-0.126256	-0.177173	-0.055707	0.61685	1.5708	0	0
0.04	3.00435	1.39431	-1.35568	0.758366	-0.527222	0.942674	-0.309998	0.0501352	-0.17104	0.336155	-0.100808	0	0	0.352778	-0.118264	-0.330268	0.591374	-0.285305	0	0	-0.401502	0.104205	0.0401358	-0.227837	-0.505107	0.434391	0.846851	0.844841	0	0	-0.129278	-0.176461	-0.0537662	0.62157	1.5708	0	0
0.05	2.96131	1.37904	-1.2962	0.755831	-0.521484	0.946218	-0.301326	0.0874372	-0.193127	0.381104	-0.106231	0	0	0.272109	-0.0601953	-0.127437	0.363849	-0.295775	0	0	-0.422863	0.122845	0.0350217	-0.217614	-0.497766	0.423026	0.829205	0.861278	0	0	-0.101368	-0.170915	-0.0422811	0.589013	1.5708	0	0
0.06	2.92882	1.37935	-1.26368	0.755201	-0.51283	0.943808	-0.312391	0.0943399	-0.195896	0.375654	-0.100493	0	0	0.304658	-0.0922388	-0.246397	0.407296	-0.277325	0	0	-0.416807	0.12882	0.0693214	-0.271563	-0.470837	0.312336	0.841106	0.943063	0	0	-0.0771526	-0.209999	0.131852	0.582933	1.44149	0	0
0.07	2.92669	1.39115	-1.25612	0.75406	-0.505607	0.942331	-0.308878	0.0926591	-0.196509	0.374552	-0.0987912	0	0	0.247104	-0.0438767	-0.0683958	0.1982	-0.310209	0	0	-0.409333	0.127153	0.0167106	-0.195624	-0.508834	0.472919	0.821926	0.827769	0	0	-0.111634	-0.167427	-0.06193	0.592933	1.5708	0	0
0.08	2.90622	1.3966	-1.23463	0.753452	-0.497626	0.940597	-0.311169	0.0953433	-0.195272	0.374673	-0.0955088	0	0	0.214854	-0.0343051	-0.0014221	0.0781953	-0.33955	0	0	-0.403821	0.128537	0.0185358	-0.199917	-0.502966	0.458192	0.817705	0.845783	0	0	-0.10901	-0.168161	-0.0573227	0.588365	1.5708	0	0
0.09	2.8764	1.40071	-1.20582	0.752932	-0.489349	0.938763	-0.313583	0.098989	-0.192606	0.376418	-0.0927488	0	0	0.210365	-0.0367771	-0.0047724	0.0344197	-0.337462	0	0	-0.398696	0.131276	0.0213523	-0.202551	-0.500966	0.451807	0.815609	0.853832	0	0	-0.108429	-0.16768	-0.0558747	0.585769	1.5708	0	0
0.1	2.84218	1.40428	-1.17275	0.752244	-0.481062	0.936953	-0.315423	0.102753	-0.188924	0.379488	-0.0906339	0	0	0.209804	-0.0377513	-0.0020224	0.0140801	-0.311256	0	0	-0.39344	0.134972	0.0191205	-0.194316	-0.507835	0.475482	0.813727	0.832901	0	0	-0.111389	-0.165492	-0.0621481	0.585189	1.5708	0	0
0.11	2.81787	1.40507	-1.1511	0.751832	-0.472502	0.935687	-0.320681	0.105314	-0.184804	0.382409	-0.0902391	0	0	0.207845	-0.0435159	-0.0190709	0	-0.333924	0	0	-0.391852	0.137097	0.0210224	-0.19285	-0.509907	0.482161	0.813119	0.827524	0	0	-0.112826	-0.164057	-0.0647158	0.583953	1.5708	0	0
0.12	2.7971	1.40524	-1.13419	0.751366	-0.463849	0.934563	-0.326015	0.106344	-0.179714	0.386822	-0.0914572	0	0	0.205568	-0.0453705	-0.0227113	0	-0.342253	0	0	-0.391247	0.138672	0.0242031	-0.192493	-0.512463	0.487431	0.813984	0.822668	0	0	-0.114423	-0.162306	-0.0670942	0.583283	1.5708	0	0
0.13	2.78843	1.40479	-1.1299	0.750823	-0.45511	0.933688	-0.332873	0.10512	-0.175305	0.391351	-0.0937375	0	0	0.202967	-0.0440016	-0.0233213	0.0116618	-0.346557	0	0	-0.392087	0.138409	0.0281284	-0.192966	-0.514474	0.490476	0.814891	0.817321	0	0	-0.115969	-0.160769	-0.0695168	0.583324	1.5708	0	0
0.14	2.79345	1.40373	-1.1389	0.750188	-0.446197	0.933096	-0.34211	0.101693	-0.172874	0.394705	-0.0976752	0	0	0.196984	-0.0388155	-0.0152146	0.0293978	-0.348647	0	0	-0.394067	0.136279	0.0317119	-0.193993	-0.51547	0.492018	0.815228	0.812378	0	0	-0.117273	-0.159441	-0.0714543	0.583622	1.5708	0	0
0.15	2.80539	1.40251	-1.15462	0.749423	-0.437044	0.932691	-0.351932	0.0975994	-0.169998	0.397451	-0.10178	0	0	0.191692	-0.0331946	-0.0111794	0.0539491	-0.346317	0	0	-0.396174	0.133205	0.0347009	-0.19535	-0.515622	0.492401	0.814476	0.809537	0	0	-0.11951	-0.158948	-0.0719248	0.584294	1.5708	0	0
0.16	2.8274	1.39944	-1.18136	0.748751	-0.427582	0.932511	-0.36283	0.0930921	-0.166533	0.403047	-0.109682	0	0	0.186839	-0.0280542	-0.0204355	0.0859967	-0.325167	0	0	-0.400672	0.128509	0.0828923	-0.270156	-0.466172	0.311055	0.821728	0.956041	0	0	-0.0866785	-0.191481	0.0852863	0.567288	1.48019	0	0
0.17	2.84569	1.39843	-1.20361	0.747762	-0.417712	0.932325	-0.37221	0.0881537	-0.161504	0.407579	-0.116647	0	0	0.189	-0.0242472	-0.0425132	0.122403	-0.309225	0	0	-0.404193	0.124576	0.0639479	-0.245429	-0.483164	0.37076	0.818585	0.914132	0	0	-0.1084	-0.162146	-0.0403927	0.574908	1.5708	0	0
0.18	2.87117	1.39671	-1.23163	0.746712	-0.407837	0.932372	-0.382581	0.0825365	-0.156892	0.412467	-0.12281	0	0	0.183509	-0.0174989	-0.0481363	0.136553	-0.312889	0	0	-0.406083	0.119401	0.0625068	-0.244527	-0.484475	0.378579	0.816373	0.909343	0	0	-0.11352	-0.161434	-0.045396	0.576302	1.5708	0	0
0.19	2.896	1.39693	-1.25917	0.745741	-0.397764	0.932544	-0.390388	0.0761823	-0.150955	0.418162	-0.132278	0	0	0.16888	-0.00726059	-0.0301377	0.122698	-0.332259	0	0	-0.405421	0.113233	0.0611891	-0.242871	-0.484408	0.386953	0.811427	0.904175	0	0	-0.117841	-0.161007	-0.0494507	0.57541	1.5708	0	0
0.2	2.91549	1.39837	-1.28198	0.744711	-0.387467	0.932752	-0.396077	0.0699486	-0.142872	0.424153	-0.143971	0	0	0.153532	0.00183284	-0.0112846	0.104712	-0.363376	0	0	-0.402645	0.107549	0.0611929	-0.242282	-0.484335	0.39466	0.806123	0.899056	0	0	-0.121276	-0.160193	-0.0521766	0.572303	1.5708	0	0
0.21	2.92647	1.40067	-1.29476	0.743371	-0.377074	0.932774	-0.399542	0.0650104	-0.134972	0.43171	-0.154688	0	0	0.146487	0.00777609	-0.00648672	0.104709	-0.382024	0	0	-0.398104	0.104052	0.0614615	-0.245144	-0.484347	0.397232	0.803253	0.895974	0	0	-0.124989	-0.159471	-0.0531771	0.570024	1.5708	0	0
0.22	2.93035	1.40432	-1.29884	0.741681	-0.366539	0.932616	-0.399943	0.0608092	-0.128419	0.441977	-0.167183	0	0	0.145039	0.0123008	-0.00664072	0.114678	-0.394311	0	0	-0.391006	0.102153	0.0610359	-0.250078	-0.485112	0.399073	0.801668	0.893895	0	0	-0.12935	-0.158097	-0.0544148	0.568194	1.5708	0	0
0.23	2.92894	1.40816	-1.29721	0.739769	-0.355764	0.93243	-0.398782	0.0568012	-0.122613	0.454063	-0.183647	0	0	0.149712	0.0141653	-0.0170947	0.139641	-0.397315	0	0	-0.382639	0.10173	0.0601075	-0.256147	-0.486924	0.400692	0.801416	0.891842	0	0	-0.134792	-0.155946	-0.0561513	0.566496	1.5708	0	0
0.24	2.93021	1.41095	-1.29789	0.737851	-0.344959	0.932589	-0.398122	0.0527115	-0.114841	0.465808	-0.201369	0	0	0.150155	0.0165849	-0.0189079	0.15851	-0.397415	0	0	-0.375626	0.101044	0.0587829	-0.261101	-0.4878	0.402259	0.799589	0.891042	0	0	-0.139717	-0.154268	-0.0568456	0.564311	1.5708	0	0
0.25	2.93665	1.4131	-1.30292	0.735945	-0.33422	0.933142	-0.396478	0.0480913	-0.10587	0.479919	-0.22572	0	0	0.151133	0.0189066	-0.0247975	0.181346	-0.397977	0	0	-0.369708	0.0997086	0.0565413	-0.264371	-0.487713	0.404654	0.79579	0.890244	0	0	-0.143565	-0.153121	-0.0568203	0.56071	1.5708	0	0
0.26	2.94379	1.41378	-1.30824	0.733996	-0.323474	0.933937	-0.394801	0.043332	-0.0964107	0.495909	-0.257842	0	0	0.164481	0.0149071	-0.0705362	0.238256	-0.388865	0	0	-0.365434	0.0989199	0.0543418	-0.268675	-0.488297	0.406274	0.793594	0.889323	0	0	-0.147893	-0.151867	-0.0575382	0.559039	1.5708	0	0
0.27	2.94907	1.41236	-1.3113	0.73209	-0.312834	0.934903	-0.393285	0.0391042	-0.0866497	0.513924	-0.292423	0	0	0.17943	0.00522716	-0.134213	0.306315	-0.367194	0	0	-0.362997	0.0994776	0.0839814	-0.320201	-0.452926	0.284574	0.796931	0.989718	0	0	-0.127612	-0.17304	0.0497732	0.545218	1.51952	0	0
0.28	2.95366	1.4124	-1.31227	0.730057	-0.30234	0.936014	-0.387642	0.0344026	-0.0775806	0.535816	-0.328862	0	0	0.182582	0.00109114	-0.166467	0.342822	-0.351414	0	0	-0.36119	0.0989558	0.056784	-0.292762	-0.474358	0.358123	0.791374	0.938013	0	0	-0.149832	-0.151567	-0.0471338	0.554767	1.5708	0	0
0.29	2.94602	1.41071	-1.30111	0.728091	-0.291768	0.93686	-0.380653	0.0316337	-0.0695085	0.562135	-0.368857	0	0	0.197258	-0.018618	-0.244551	0.415525	-0.33134	0	0	-0.358958	0.101447	0.0554368	-0.300991	-0.47356	0.349742	0.793356	0.945873	0	0	-0.155018	-0.151518	-0.0452022	0.55838	1.5708	0	0
0.3	2.94856	1.41087	-1.29886	0.725914	-0.281658	0.93781	-0.367657	0.0266986	-0.0623688	0.595226	-0.408868	0	0	0.194313	-0.0223496	-0.26639	0.439147	-0.319122	0	0	-0.356054	0.102408	0.0522682	-0.306898	-0.472922	0.343528	0.793939	0.951556	0	0	-0.15827	-0.150277	-0.0469076	0.559851	1.5708	0	0
0.31	2.95666	1.41155	-1.30176	0.723565	-0.271846	0.938751	-0.350089	0.0205501	-0.0557888	0.634463	-0.447972	0	0	0.186326	-0.0202449	-0.271505	0.448099	-0.309336	0	0	-0.353217	0.102699	0.0490296	-0.312944	-0.473042	0.337651	0.795362	0.955698	0	0	-0.1605	-0.148808	-0.0480468	0.561111	1.5708	0	0
0.32	2.96887	1.41237	-1.30908	0.72121	-0.26228	0.939624	-0.328156	0.0131432	-0.0507461	0.679687	-0.494608	0	0	0.176972	-0.0164818	-0.27256	0.453228	-0.29894	0	0	-0.350531	0.102114	0.0459996	-0.318712	-0.473175	0.331734	0.796851	0.96042	0	0	-0.162295	-0.149327	-0.0427916	0.563111	1.5708	0	0
0.33	2.98412	1.41303	-1.32052	0.718977	-0.253053	0.940435	-0.302856	0.00533808	-0.0438175	0.730537	-0.522095	0	0	0.166231	-0.0118215	-0.27144	0.454494	-0.294242	0	0	-0.348892	0.100767	0.0414197	-0.320232	-0.476868	0.335872	0.799001	0.954659	0	0	-0.165273	-0.14949	-0.0408318	0.566436	1.5708	0	0
0.34	3.00079	1.41341	-1.33331	0.716783	-0.244064	0.941234	-0.275707	-0.00325203	-0.0413385	0.782591	-0.56186	0	0	0.153444	-0.00686385	-0.269007	0.451152	-0.286116	0	0	-0.347841	0.099352	0.0373509	-0.321669	-0.479397	0.337204	0.800625	0.951556	0	0	-0.166843	-0.149406	-0.0389216	0.568093	1.5708	0	0
0.35	3.01611	1.41362	-1.3454	0.714862	-0.235353	0.941978	-0.246839	-0.0120646	-0.0404787	0.837462	-0.593133	0	0	0.141257	-0.00252622	-0.265757	0.448927	-0.278439	0	0	-0.347408	0.0975793	0.0337355	-0.321439	-0.481459	0.339474	0.801462	0.948687	0	0	-0.167504	-0.149035	-0.0382934	0.569413	1.5708	0	0
0.36	3.03139	1.41418	-1.35872	0.713214	-0.226859	0.942632	-0.215452	-0.0217628	-0.0408051	0.89518	-0.617929	0	0	0.129253	0.00111894	-0.264382	0.44592	-0.271118	0	0	-0.347211	0.0952647	0.0304321	-0.320452	-0.483667	0.34244	0.80268	0.946301	0	0	-0.167753	-0.148253	-0.039441	0.570063	1.5708	0	0
